<?xml version="1.0" encoding="UTF-8"?>
<svg id="Layer_1" xmlns="http://www.w3.org/2000/svg" xmlns:xlink="http://www.w3.org/1999/xlink" viewBox="0 0 1080 1080">
  <defs>
    <style>
      .cls-1 {
        fill: url(#linear-gradient-2);
      }

      .cls-2 {
        fill: beige;
      }

      .cls-3 {
        fill: url(#linear-gradient);
      }
    </style>
    <linearGradient id="linear-gradient" x1="239.32" y1="540" x2="840.68" y2="540" gradientUnits="userSpaceOnUse">
      <stop offset="0" stop-color="#87ceeb"/>
      <stop offset="1" stop-color="#036"/>
    </linearGradient>
    <linearGradient id="linear-gradient-2" x1="516.26" y1="458.9" x2="573.83" y2="497.91" gradientUnits="userSpaceOnUse">
      <stop offset="0" stop-color="#00caf7"/>
      <stop offset="1" stop-color="#0082ce"/>
    </linearGradient>
  </defs>
  <circle class="cls-3" cx="540" cy="540" r="300.68"/>
  <g>
    <g>
      <path class="cls-2" d="M355.62,685.4v-17.83h16.06c-4.22-4.72-6.34-10.12-6.34-16.21v-2.65c0-6.09,1.6-11.71,4.79-16.87,3.19-5.15,7.49-9.23,12.89-12.23,5.4-3,11.15-4.5,17.24-4.5,4.03,0,7.9.72,11.64,2.14,3.73,1.43,7.12,3.46,10.17,6.12,3.73,3.05,6.68,6.92,8.84,11.64l-15.17,9.14c-.98-2.55-2.31-4.62-3.98-6.19-3.05-3.34-6.88-5.01-11.49-5.01s-8.6,1.55-11.93,4.64c-3.34,3.09-5.01,6.9-5.01,11.42v2.06c0,4.72,1.67,8.64,5.01,11.79,3.34,3.14,7.41,4.72,12.23,4.72h32.86v17.83h-77.79Z"/>
      <path class="cls-2" d="M444.24,581.64h17.83l1.56,111.52h-17.83l-1.56-111.52Z"/>
      <path class="cls-2" d="M518.56,670.15c1.72,1.72,2.58,3.86,2.58,6.41s-.86,4.54-2.58,6.26c-1.72,1.72-3.81,2.58-6.26,2.58h-4.42c-4.62,0-8.79-1.42-12.52-4.27l-.15,4.86c-.69,9.53-4,17.19-9.94,22.98-5.94,5.79-13.88,9.63-39.23,11.36l-.59-16.79c22.9-1.34,22.68-3.68,26.56-6.87,3.88-3.19,5.82-8.13,5.82-14.81v-67.63h17.68v40.96c0,3.34,1.23,6.24,3.68,8.69,2.45,2.46,5.35,3.69,8.69,3.69h4.42c2.45,0,4.54.86,6.26,2.58Z"/>
      <path class="cls-2" d="M593.19,606.94c7.37,5.65,13.16,12.8,17.39,21.44,4.22,8.65,6.33,18.22,6.33,28.73v10.61c0,4.91-1.72,9.09-5.16,12.52-3.44,3.44-7.57,5.16-12.38,5.16h-88.84v-17.68h17.53c-1.97-2.16-3.51-4.79-4.64-7.88-1.13-3.09-1.69-6.26-1.69-9.5,0-5.7,1.5-10.78,4.49-15.25,2.99-4.47,7.02-7.95,12.08-10.46,5.06-2.5,10.58-3.76,16.57-3.76,6.29,0,12.01,1.55,17.16,4.64,5.16,3.09,9.21,7.32,12.16,12.67,2.95,5.36,4.42,11.18,4.42,17.46v5.6c0,2.26-.3,4.42-.88,6.48h8.55c.88,0,1.59-.3,2.14-.89.54-.59.81-1.33.81-2.21v-7.51c0-7.56-1.4-14.44-4.2-20.63-2.8-6.19-6.73-11.29-11.79-15.32-5.06-4.03-10.93-6.68-17.61-7.96-6.58-1.37-14.2-2.06-22.84-2.06l.15-17.53c6.78.1,11.47.25,14.07.44,2.6.2,6.41.74,11.42,1.62,9.14,1.87,17.39,5.62,24.75,11.27ZM544.27,642.53c-3.15,2.65-4.72,6.09-4.72,10.31s1.37,7.76,4.12,10.61c2.75,2.85,5.84,4.27,9.28,4.27h14.29c.98,0,1.86-.37,2.65-1.11.79-.73,1.18-1.59,1.18-2.58v-10.02c0-2.36-.71-4.72-2.14-7.07-1.43-2.36-3.37-4.35-5.82-5.97-2.46-1.62-5.21-2.43-8.25-2.43-3.93,0-7.47,1.33-10.61,3.98Z"/>
      <path class="cls-2" d="M671.6,670.15c1.72,1.72,2.58,3.86,2.58,6.41s-.86,4.54-2.58,6.26c-1.72,1.72-3.81,2.58-6.26,2.58h-4.27c-4.91,0-9.09-1.42-12.52-4.27l-.15,4.86c-.69,9.53-4,17.19-9.94,22.98-5.94,5.79-13.88,9.63-23.79,11.49l-6.48-16.79c5.6-1.08,10-2.38,13.19-3.9,3.19-1.53,5.6-3.71,7.22-6.56,1.62-2.85,2.43-6.63,2.43-11.35v-67.63h17.68v40.96c0,3.34,1.23,6.24,3.68,8.69,2.45,2.46,5.35,3.69,8.69,3.69h4.27c2.45,0,4.54.86,6.26,2.58ZM646.92,583.37c2.06,2.01,3.09,4.45,3.09,7.29s-1.03,5.3-3.09,7.37c-2.06,2.06-4.52,3.09-7.37,3.09s-5.3-1.03-7.37-3.09c-2.06-2.06-3.09-4.52-3.09-7.37s1.03-5.28,3.09-7.29c2.06-2.01,4.52-3.02,7.37-3.02s5.3,1.01,7.37,3.02Z"/>
      <path class="cls-2" d="M658.86,682.82c-1.77-1.72-2.65-3.81-2.65-6.26s.86-4.69,2.58-6.41c1.72-1.72,3.86-2.58,6.41-2.58h7.66c1.77,0,3.26-.61,4.49-1.84,1.23-1.23,1.84-2.73,1.84-4.5v-78.68h17.83v78.68c0,4.33-1.08,8.35-3.24,12.08-2.16,3.73-5.08,6.68-8.77,8.84-3.68,2.16-7.69,3.24-12.01,3.24h-7.81c-2.45,0-4.57-.86-6.33-2.58Z"/>
      <path class="cls-2" d="M706.55,582.26h17.83v103.14h-17.83v-103.14Z"/>
    </g>
    <g>
      <path class="cls-2" d="M622.03,503.41v3.9h-162.01v-3.9h162.01Z"/>
      <path class="cls-2" d="M622.03,475.86v3.9h-162.01v-3.9h162.01Z"/>
      <path class="cls-2" d="M622.01,452.06v3.9h-161.97v-3.9h161.97Z"/>
      <path class="cls-2" d="M619.98,424.66h7.74s-.02,106.3-.02,106.3h-7.74s.02-106.3.02-106.3Z"/>
      <path class="cls-2" d="M578.21,406.85l5.47-5.47,41.83,17.8-5.47,5.47-41.83-17.8Z"/>
      <path class="cls-2" d="M506.72,405.93l-5.47-5.47-46.73,18.72,5.47,5.47,46.73-18.72Z"/>
      <path class="cls-2" d="M627.72,530.82v7.74s-175.44.14-175.44.14v-7.74s175.44-.14,175.44-.14Z"/>
      <path class="cls-2" d="M452.28,424.65h7.73l.02,106.3h-7.73l-.02-106.3Z"/>
      <path class="cls-2" d="M513.95,359.54h54.14c9.02,0,16.34,7.32,16.34,16.34v34.28h-86.81v-34.28c0-9.02,7.32-16.34,16.34-16.34Z"/>
      <path class="cls-1" d="M541.02,432.29c.83,2,1.82,4.05,2.96,6.16,2.73,5.05,6.04,9.87,8.92,13.93.24.34.49.69.73,1.03,7.42,10.44,15.09,21.23,16.01,33.26.36,4.8-.46,9.8-2.38,14.44-1.92,4.65-4.91,8.85-8.63,12.14-.05.04-.1.09-.15.13-4.77,4.17-10.98,6.46-17.47,6.46s-12.7-2.29-17.47-6.46c-.05-.04-.1-.09-.15-.13-3.72-3.29-6.7-7.49-8.63-12.14-1.92-4.64-2.74-9.63-2.38-14.44.91-12.03,8.59-22.83,16.01-33.27.24-.34.49-.68.73-1.03,2.88-4.05,6.19-8.88,8.92-13.93,1.14-2.11,2.13-4.16,2.96-6.16M541.02,422.35c-1.95,10.15-8.09,19.62-14.28,28.33-7.82,11.01-16.27,22.52-17.28,35.78-.81,10.72,3.73,21.7,11.99,29.01.05.05.11.1.16.14,5.49,4.79,12.45,7.19,19.4,7.19s13.92-2.4,19.4-7.19c.05-.05.11-.09.16-.14,8.26-7.31,12.8-18.28,11.99-29.01-1.01-13.26-9.46-24.77-17.28-35.78-6.19-8.71-12.33-18.18-14.28-28.33h0Z"/>
      <path class="cls-2" d="M625.51,419.18s2.21,1.65,2.21,5.47h-7.68l5.47-5.47Z"/>
      <path class="cls-2" d="M454.53,419.18s-2.21,1.65-2.21,5.47h7.68l-5.47-5.47Z"/>
    </g>
  </g>
</svg>